<svg width="304" height="48" viewBox="0 0 304 48" fill="none" xmlns="http://www.w3.org/2000/svg">
<path fill-rule="evenodd" clip-rule="evenodd" d="M9.25941 27.2013H4.34731V37.4489H0.000610352V9.78H9.78932C16.716 9.78 19.473 14.091 19.473 18.3665C19.473 23.1723 15.9382 27.2013 9.25941 27.2013ZM9.4004 13.8081H4.34731V23.2078H9.4004C13.6066 23.2078 15.0548 20.6635 15.0548 18.4729C15.0548 16.3879 13.9595 13.8081 9.4004 13.8081Z" fill="#F5F5F5"/>
<path d="M32.689 22.8204C32.3356 22.7498 31.6992 22.7139 31.4868 22.7139C28.2716 22.7139 26.575 24.6229 26.575 27.8736V37.4499H22.37V18.5803H26.4695V21.5836C27.6353 19.4632 29.6142 18.4024 31.6643 18.4024C31.9117 18.4024 32.4411 18.4384 32.689 18.5089V22.8204Z" fill="#F5F5F5"/>
<path fill-rule="evenodd" clip-rule="evenodd" d="M140.533 34.1631C137.776 34.1631 135.091 32.1496 135.02 29.2513H149.333C149.403 28.7924 149.403 28.1196 149.403 27.9437C149.403 22.254 146.081 18.1905 140.215 18.1905C134.737 18.1905 130.708 22.6429 130.708 27.9791C130.708 33.5973 135.02 37.8032 140.603 37.8032C143.89 37.8032 147.035 36.2486 148.661 33.2449L145.622 31.2303C144.526 33.3149 142.83 34.1631 140.533 34.1631ZM145.127 26.0711H135.232C135.62 23.4912 137.635 21.7951 140.215 21.7951C142.83 21.7951 144.986 23.3857 145.127 26.0711Z" fill="#F5F5F5"/>
<path fill-rule="evenodd" clip-rule="evenodd" d="M124.049 9.79297V20.9708C123.443 20.3052 122.745 19.7567 121.967 19.3351C120.739 18.671 119.333 18.3339 117.788 18.3339C115.261 18.3339 112.889 19.3433 111.111 21.1746C109.323 23.016 108.339 25.4894 108.339 28.1402C108.339 30.7897 109.323 33.2632 111.111 35.1046C112.889 36.9368 115.261 37.9462 117.788 37.9462C119.333 37.9462 120.739 37.6082 121.967 36.944C122.745 36.5215 123.443 35.9739 124.049 35.3098V37.4835H128.057V9.79297H124.049ZM118.18 34.0433C116.58 34.0433 115.105 33.4439 114.027 32.3568C112.944 31.2654 112.348 29.7688 112.348 28.1402C112.348 26.5118 112.944 25.0128 114.027 23.9209C115.105 22.8353 116.58 22.2359 118.18 22.2359C121.525 22.2359 124.049 24.773 124.049 28.1402C124.049 31.5052 121.525 34.0433 118.18 34.0433Z" fill="#F5F5F5"/>
<path fill-rule="evenodd" clip-rule="evenodd" d="M33.6252 27.9791C33.6252 22.5729 38.0079 18.1905 43.4141 18.1905C48.8202 18.1905 53.2031 22.5729 53.2031 27.9791C53.2031 33.3848 48.8202 37.7673 43.4141 37.7673C38.0079 37.7673 33.6252 33.3848 33.6252 27.9791ZM48.9904 27.9791C48.9904 24.9048 46.4891 22.4031 43.4141 22.4031C40.3395 22.4031 37.8374 24.9048 37.8374 27.9791C37.8374 31.0539 40.3395 33.5546 43.4141 33.5546C46.4891 33.5546 48.9904 31.0539 48.9904 27.9791Z" fill="#F5F5F5"/>
<path d="M90.955 22.4026C87.88 22.4026 85.379 24.9044 85.379 27.9781C85.379 31.0534 87.88 33.5541 90.955 33.5541C94.0295 33.5541 96.5309 31.0534 96.5309 27.9781C96.5309 24.9044 94.0295 22.4026 90.955 22.4026Z" fill="#F5F5F5"/>
<path fill-rule="evenodd" clip-rule="evenodd" d="M70.5053 13.3971H91.1174C99.1713 13.3971 105.7 19.9269 105.7 27.9791C105.7 36.0329 99.1713 42.5612 91.1174 42.5612H70.5053C62.4514 42.5612 55.9227 36.0329 55.9227 27.9791C55.9227 19.9269 62.4514 13.3971 70.5053 13.3971ZM60.7362 27.9791C60.7362 33.5283 65.0122 37.7678 70.5607 37.7678C75.5788 37.7678 78.2645 34.658 79.1833 32.0792L75.5082 30.4525C74.8366 32.1842 73.6001 33.9508 70.6309 33.9508C67.4153 33.9508 65.0475 31.4423 65.0475 27.9087C65.0475 24.4096 67.5213 22.0076 70.5959 22.0076C73.6704 22.0076 74.8366 23.8087 75.4375 25.4698L79.0422 23.8446C77.9818 20.6639 74.9424 18.1914 70.5607 18.1914C64.9415 18.1914 60.7362 22.7139 60.7362 27.9791ZM81.1666 27.9791C81.1666 33.3858 85.549 37.7678 90.9552 37.7678C96.3621 37.7678 100.744 33.3858 100.744 27.9791C100.744 22.5724 96.3621 18.1914 90.9552 18.1914C85.549 18.1914 81.1666 22.5724 81.1666 27.9791Z" fill="#F5F5F5"/>
<path d="M161.814 17.8835C166.158 17.8835 169.261 20.8313 169.261 25.8737V37.7815H165.072V26.3004C165.072 23.3525 163.365 21.801 160.728 21.801C157.974 21.801 155.802 23.4301 155.802 27.3864V37.7815H151.613V18.3877H155.802V20.8701C157.082 18.8532 159.176 17.8835 161.814 17.8835ZM186.067 18.3877H190.256V37.7815H186.067V35.2991C184.787 37.316 182.693 38.2857 180.055 38.2857C175.711 38.2857 172.608 35.3379 172.608 30.2955V18.3877H176.797V29.8688C176.797 32.8167 178.504 34.3682 181.141 34.3682C183.895 34.3682 186.067 32.7391 186.067 28.7828V18.3877ZM204.58 17.8835C208.924 17.8835 212.027 20.8313 212.027 25.8737V37.7815H207.838V26.3004C207.838 23.3525 206.131 21.801 203.494 21.801C200.74 21.801 198.568 23.4301 198.568 27.3864V37.7815H194.379V18.3877H198.568V20.8701C199.848 18.8532 201.942 17.8835 204.58 17.8835ZM231.122 10.6302H235.311V37.7815H231.122V34.9888C229.648 37.0445 227.359 38.2857 224.334 38.2857C219.059 38.2857 214.676 33.8251 214.676 28.0846C214.676 22.3053 219.059 17.8835 224.334 17.8835C227.359 17.8835 229.648 19.1247 231.122 21.1416V10.6302ZM224.993 34.2906C228.484 34.2906 231.122 31.6918 231.122 28.0846C231.122 24.4774 228.484 21.8786 224.993 21.8786C221.502 21.8786 218.865 24.4774 218.865 28.0846C218.865 31.6918 221.502 34.2906 224.993 34.2906ZM243.607 21.6459C244.77 19.0083 247.136 18.0386 249.58 18.0386V22.5768C246.826 22.3828 243.607 23.6628 243.607 28.007V37.7815H239.418V18.3877H243.607V21.6459ZM264.971 18.3877H269.16V37.7815H264.971V35.2991C263.691 37.316 261.596 38.2857 258.959 38.2857C254.615 38.2857 251.512 35.3379 251.512 30.2955V18.3877H255.701V29.8688C255.701 32.8167 257.407 34.3682 260.045 34.3682C262.799 34.3682 264.971 32.7391 264.971 28.7828V18.3877ZM294.461 17.8835C298.843 17.8835 301.791 20.9089 301.791 25.7573V37.7815H297.602V26.0289C297.602 23.3137 296.128 21.801 293.84 21.801C291.358 21.801 289.612 23.3913 289.612 26.921V37.7815H285.423V26.0289C285.423 23.3137 284.065 21.801 281.777 21.801C279.411 21.801 277.472 23.3913 277.472 26.921V37.7815H273.283V18.3877H277.472V20.715C278.713 18.8144 280.613 17.8835 283.018 17.8835C285.539 17.8835 287.401 19.0083 288.526 20.9477C289.806 18.9307 291.862 17.8835 294.461 17.8835Z" fill="#F5F5F5"/>
</svg>
