<svg width="202" height="120" viewBox="0 0 202 120" fill="none" xmlns="http://www.w3.org/2000/svg">
    <path d="M129.138 0.00805664C149.765 -0.166742 168.653 2.38974 184.263 17.1526C196.117 28.8862 201.639 42.3077 201.8 58.7737C201.842 76.2884 196.74 89.8011 184.613 102.774C167.798 118.601 148.726 119.781 126.878 119.797C124.778 119.804 122.677 119.811 120.576 119.818C116.186 119.83 111.794 119.832 107.404 119.831C101.815 119.831 96.2265 119.858 90.6379 119.893C86.302 119.915 81.9661 119.919 77.6301 119.918C75.5716 119.921 73.5128 119.93 71.4543 119.946C50.8242 120.087 32.3496 117.081 16.7727 102.086C4.57654 88.4491 -0.716085 73.0752 0.0773926 54.8752C1.16234 38.8833 8.52839 25.1569 20.425 14.4612C32.763 4.71327 45.976 0.333999 61.6653 0.284424C62.5767 0.277854 63.488 0.270685 64.427 0.263916C67.434 0.244262 70.4414 0.232885 73.4485 0.2229C74.4821 0.218825 75.5163 0.214404 76.5813 0.210205C82.0591 0.189371 87.537 0.175651 93.0149 0.16626C98.6339 0.155239 104.252 0.120114 109.871 0.0803223C114.225 0.0539924 118.579 0.0458112 122.932 0.0422363C125.001 0.0374076 127.069 0.0267571 129.138 0.00805664ZM162.425 25.3909C144.383 15.1876 125.248 19.6453 111.523 34.3401C103.355 43.8889 101.409 53.5605 102.425 65.8772C104.402 75.9638 109.85 83.9625 117.749 90.5178C128.253 98.2685 138.678 99.7177 151.573 98.0588C161.537 96.0236 170.047 89.0492 175.882 81.0715C182.522 70.9288 183.144 59.5214 180.765 47.8176C177.609 38.2389 171.151 30.5314 162.425 25.3909ZM127.3 42.5237C135.642 35.9112 146.316 35.0994 155.413 40.8323C159.829 44.4081 163.431 48.7725 164.425 54.4612C165.128 61.7838 164.732 68.2947 160.425 74.4612C155.194 79.5504 149.507 82.7292 142.113 82.8362C135.785 82.6915 131.422 81.1518 126.706 76.9182C121.882 71.7506 119.762 66.4979 118.988 59.5237C119.327 52.5929 122.254 47.1829 127.3 42.5237Z" fill="#122C91"/>
</svg>
